<?xml version="1.0" encoding="utf-8"?>
<!-- Generator: Adobe Illustrator 19.2.1, SVG Export Plug-In . SVG Version: 6.00 Build 0)  -->
<svg version="1.1" id="layer" xmlns="http://www.w3.org/2000/svg" xmlns:xlink="http://www.w3.org/1999/xlink" x="0px" y="0px"
	 viewBox="0 0 652 652" style="enable-background:new 0 0 652 652;" xml:space="preserve">
<style type="text/css">
	.st0{fill:#FA9000;}
	.st1{fill:#FFFFFF;}
</style>
<path class="st0" d="M457.8,314.8v-11.2H428v9.6h15.4l-15.8,22.9v11.2h30.6v-9.7h-16.1L457.8,314.8z M564.5,319.7
	c-0.7,0.8-1.5,1.2-3.6,1.4h-4.2v-8.7h3.2l0.8,0.1c1.7,0,2.4,0.2,3.1,0.8C565.7,314.4,566.1,317.6,564.5,319.7L564.5,319.7z
	 M574.6,331.5c-1.7-3.9-2.3-4.7-3.8-5.4c0.3-0.1,0.5-0.2,0.8-0.3c5-2.2,7.4-7.9,5.5-14.1c-1.5-5.2-5.6-8-13.3-8h-18v43.7h11.4V331
	h2.6c1.9,0,3,0.8,3.9,3.1l0.6,1.4l0.3,0.8l4.3,11h11.8l-5.5-14.3C575,332.5,574.9,332,574.6,331.5L574.6,331.5z M600.5,329.9
	l4.4-13.1l4.4,13.1H600.5z M611.1,303.7h-12.7L583,347.3h11.6l2.6-8H612l2.6,8h12.2L611.1,303.7z M392.5,329.9l4.4-13.1l4.4,13.1
	H392.5z M390.3,303.7L375,347.3h11.5l2.6-8h14.8l2.6,8h12.3l-15.7-43.7H390.3z M289.6,329.9l4.4-13.1l4.4,13.1H289.6z M287.4,303.7
	l-15.3,43.7h11.6l2.6-8H301l2.5,8h12.3l-15.7-43.7H287.4z M517.9,330.5H533v-9.3h-15.1v-7.9h17.5v-9.6h-29.1v43.7H537v-9.3h-19.1
	L517.9,330.5L517.9,330.5z M478.5,330.5h15.1v-9.3h-15.1v-7.9h17.6v-9.6h-29.1v43.7h30.7v-9.3h-19.1V330.5z M357.5,345.4
	c0,6.8-2.3,9.3-7.6,7.7c-0.3-0.1-0.6-0.2-0.9-0.3l-2.5,9.7c0.5,0.3,1.1,0.5,1.7,0.8c12.2,4.7,20.1-2.3,20.1-14.7v-45h-10.9
	L357.5,345.4L357.5,345.4z M348.7,337.6h-14.5v-33.9h-11.8v43.7h26.3V337.6z M348.7,337.6"/>
<rect x="26.8" y="216.3" class="st0" width="219" height="218.5"/>
<path class="st1" d="M151.1,391.2c-0.2,0.1-0.4,0.6-0.2,1.2l1.2,3.2c0.7,1.9,1.9,4.2,3.5,5.3c1.7,1.2,2.6,0.8,3,0.7
	c0.3-0.2,1.3-0.8,1-2.5c-0.2-1.1-0.5-2.1-1-3.1c-0.4-0.6-0.8-1.1-1.1-1c-0.2,0,0,0.6,0,1c0,0.7-0.3,1.2-0.8,1.5
	c-0.5,0.2-1.7,0.7-2.7-1c-0.8-1.4-1.5-3.2-1.8-3.9c-0.2-0.5-0.6-1.2-0.9-1.2H151.1z M123.9,396.2l5.8,4.8l5.6-6.8l-5.8-4.8
	L123.9,396.2z M125.1,384.3l5.8,4.8l5.7-6.8l-5.8-4.8L125.1,384.3z M162.1,367.6l6.8,3.2l3.8-8l-6.8-3.2L162.1,367.6z M126.9,361.9
	c2.7,6.5,6.9,12.2,12.2,16.9c0.5-3.5,1.1-6,1.6-7.8c-5.1-3.6-8.7-7.6-11.1-11.6L126.9,361.9z M139.8,353.4l6.8,3.2l3.8-8l-6.8-3.2
	L139.8,353.4z M107,321.5c0,0-4.3,3-6,7c-0.9,2-1.1,4.3-0.4,6.4c0.6,1.3,2,2.5,3.8,1c1.3-1,1.8-2.5,2.1-3.7c0.2-0.7,0.2-1.2,0.2-1.6
	c0-0.4-0.2-0.8-0.5-0.7c-1.2,0.4-0.5,2.1-1.4,2.9c-0.6,0.4-2.4,0.2-2.7-1.5c-0.4-1.7,1-3.9,2.2-5.4c1.2-1.5,3.3-3.4,3.3-3.4
	s1.5-1.2,1-1.8l-0.2,0C108.1,320.7,107,321.5,107,321.5L107,321.5z M148.8,317.1l-5.2,5.7l-4.5,4.9c-1,1.1-1.5,2.2-1.4,2.8l0.6,3
	c0.2-0.5,0.8-1.6,1.5-2.3c0.5-0.5,2.9-3.2,5.3-5.8l4.5-4.9c1-1.1,1.5-2.2,1.4-2.8l-0.6-2.9C150.1,315.3,149.5,316.3,148.8,317.1
	L148.8,317.1z M92.2,360.2c0.8-2.6,2.3-5,4.9-6.5c4.3-2,6,3.1,6,3.1c-0.3,3.5-2.9,5.3-5.9,5.3C95.5,362.1,93.7,361.5,92.2,360.2
	L92.2,360.2z M124.1,276.9c-3.8,0.1-6.2,4.2-4.6,7.6c1.7,3.4,6.3,4,8.8,1.1l0.1-0.2c0.6,4.2-1.4,7.6-6.1,11.5
	c-4.8,4.1-16,9.3-24,15.6c-12,8.7-17.3,24-13.4,38.3c0.8,3.1,1.8,6,3.1,8.9c-0.4,7.2,0.7,14.3,3.2,21.1c3.9,8.8,11,16,21.1,13.9
	c10.2-2.4,11.4-19,12.5-31.1c0.3-2,0.6-2.3,1.2-2.9c1.6-1.4,5.6-5.1,7.5-6.8c1.2-1.1,2.2-2.1,2.9-3.4c0.8-1.6,0.4-3.7,0.4-3.7
	l-1.1-8c-0.3,1.1-1.7,2.7-3.6,4.7c-2,2-7.5,6.7-8,7.2c-0.5,0.5-2.2,1.8-3,7.9c-2,16.6-5.2,24.4-11.1,27.1c-1.6,0.7-3.3,1.1-5.2,1.1
	c-10.7-0.1-13.6-13.2-13.5-20.4c0-0.4,0-0.9,0.1-1.2c2.5,3.4,6.2,6.7,10.7,6c7.3-1.1,5-13.4,3.9-16.2c-1-2.8-3.8-11.4-9.9-11
	c-4.3,0.3-6.3,5.4-7.2,9.6c-0.9-3.4-1.2-6.9-1-10.4c0.6-7.4,3.2-16.7,13.9-25.8c7.6-6.5,16.4-11.2,21.2-14.9c2.6-2,4.7-4.7,6-7.7
	c-0.3,2.8-1,5.6-2.1,8.2c-4.5,11.8-18,31.2-18.2,58.6c0,8.4,0.8,15.7,2.1,21.9c0.7-0.5,1.4-1.2,2.1-1.9c-1-4.5-1.5-9.4-1.5-14.7
	c0-27.4,13.4-46.7,17.8-58.5c2.3-6.2,2.3-10.7,2.3-15.1c0-5.5-1.2-11.2-2.3-13.4c-1.3-2.1-2.7-3.1-5-3.1H124.1z M137.3,239.4
	c-2.7,1.9-5,6.2-5,12.7c0,4,1.2,8.9,4.3,14.3c-4.2,5.7-4.9,10.9-3.2,15.9c1.3,3.8,2,4.8,2.7,7.1c1.5,5.8-0.2,12.7-4.7,23.5
	c-3.7,8.7-8.6,17.9-8.6,29.1c0,2.5,0.2,5.1,0.6,7.5c0.4-0.4,1.3-1.3,2.4-2.3c-0.5-8.7,2.9-17.5,7.2-25.4c6.2-11.5,7-23.3,5.8-29.7
	c4.4,4.7,11.7,11.7,16,18.8c1.4,2.4,2.3,4.7,2.5,7c0.3,5.1-1.6,10-5.1,13.7c-2.9,3.3-1.9,6.3-1.8,6.9c0.3,0.9,1.5,4.6,2.3,7
	c3.3-6.4,12.2-9.9,16.3-15.2c0.9,6.5-4,12.7-7.6,16.9c-0.8,0.9-1.8,1.9-2.9,2.9c-6.9,6.6-11.4,11.2-13.8,15.4
	c-0.6,0.9-1.6,3-2.1,4.6c-0.7,2-1.6,5.5-2.4,11.5c-0.5,3.2-1,6.4-1.4,9.7c-0.5,4.3-1.8,11.1-7.1,13.1c-0.2,0.1-0.6,0.2-0.8,0.2v0
	c-5.1,1.1-10.2-3.1-13.9-10.7c-0.8,0.6-1.7,1.1-2.6,1.5c5.1,12,12.7,17.5,19.4,17.5c5.1,0,9.1-2.5,10.4-10c0.6-3.8,1.1-7.9,1.6-12
	c0.2-1.9,1.2-12.9,2.9-16.9c2.2-4.5,7-8.8,14.1-16.1c4.4-4.5,6.8-8.4,8-11.4c4.2-7.6-1-25.6-2-28.9c0-0.1,0-0.2-0.1-0.2
	c-0.1,0-0.1,0-0.2,0.2l0,0.1c-1.8,3-5.1,5.7-8.2,7.9c1.7-4.7,1.3-8.3,0.6-11.3l-0.2-0.6c-3.1-12-15.3-22.6-20.9-28.8
	c-7.2-8-4.7-13.1-2.1-16.4l1.6,2.3c9.8,13.3,28.2,34.3,37.9,54.3c2.3,4.7,4.1,9.7,5.3,14.8c3.8,20.8-10.7,41.8-32.4,35.9l-0.4-0.1
	c-0.6,1.8-1.1,4.8-1.7,8.8c3.3,1.4,6.8,2.3,10.3,2.4h0.8c17.8,0.2,31.8-13.1,29.2-41.1c0,0-1.1-11.7-7.1-24
	c-9.7-21.5-27.5-42.9-38.5-56.7c-2.9-3.4-5.1-7.3-6.6-11.4c-2-6.4-0.7-11.3,1.9-13.5c0.6-0.5,1.3-1,1.9-1.3c0.4-0.2,0.2-0.6,0-0.7
	h-0.3C139.6,238.1,138.8,238.3,137.3,239.4L137.3,239.4z M117.3,286c-2.9,0.1-5.2,2.5-5.1,5.5c0.1,2.9,2.6,5.2,5.5,5.1
	c2.9-0.1,5.2-2.6,5.1-5.5c-0.1-2.8-2.4-5.1-5.3-5.1H117.3L117.3,286z M117.3,286"/>
</svg>
